<svg width="106" height="32" viewBox="0 0 106 32" fill="none" xmlns="http://www.w3.org/2000/svg">
<path d="M69.1676 10.7891V21.6963H67.0535L61.125 14.1746V21.6657H58.582V10.7891H61.5386L66.6859 17.4529V10.7891H69.1676Z" fill="black"/>
<path d="M52.08 21.8492C48.8017 21.8492 46.3047 19.5514 46.3047 16.2271C46.3047 12.8875 48.817 10.605 52.08 10.605C55.3277 10.605 57.84 12.8875 57.84 16.2271C57.84 19.536 55.3277 21.8492 52.08 21.8492ZM52.08 19.5207C53.9949 19.5207 55.1898 18.0654 55.1898 16.2271C55.1898 14.4041 53.9949 12.9335 52.08 12.9335C50.1651 12.9335 48.9549 14.3888 48.9549 16.2271C48.9549 18.0807 50.1651 19.5207 52.08 19.5207Z" fill="black"/>
<path d="M33.0352 13.0563V10.7891H43.8658V13.0563H39.7449V21.6657H37.156V13.0563H33.0352Z" fill="black"/>
<path d="M35.4214 19.3678V21.6657H26.3984V10.7891H29.0027V19.3678H35.4214Z" fill="black"/>
<path d="M22.5117 21.6657V10.7891H25.116V21.6657H22.5117Z" fill="black"/>
<path d="M16.0949 19.521C17.7494 19.521 18.7145 18.4027 18.7145 16.7329V10.7891H21.2881V16.9014C21.2881 19.6895 19.4958 21.8954 16.0949 21.8954C12.6022 21.8954 10.8711 19.7201 10.8711 16.9014V10.7891H13.4753V16.7329C13.4753 18.4027 14.4098 19.521 16.0949 19.521Z" fill="black"/>
<path d="M0 21.6657V10.7891H6.28085C8.65532 10.7891 9.92681 11.9533 9.92681 13.7457C9.92681 14.8793 9.16085 15.6146 8.39489 15.921C9.34468 16.2427 10.2026 17.1159 10.2026 18.5559C10.2026 20.4401 8.90042 21.6657 6.38808 21.6657H0ZM5.86723 12.8878H2.5583V15.0325H5.86723C6.75574 15.0325 7.2766 14.6954 7.2766 13.9601C7.2766 13.2095 6.77106 12.8878 5.86723 12.8878ZM5.92851 17.1312H2.5583V19.5669H5.92851C7.00085 19.5669 7.55234 19.138 7.55234 18.3414C7.55234 17.5295 7.00085 17.1312 5.92851 17.1312Z" fill="black"/>
<path fill-rule="evenodd" clip-rule="evenodd" d="M75.168 16.25C75.168 7.82761 81.9956 1 90.418 1C98.8404 1 105.668 7.82761 105.668 16.25C105.668 24.6724 98.8404 31.5 90.418 31.5C81.9956 31.5 75.168 24.6724 75.168 16.25ZM94.6805 22.8456H96.6171L96.6172 9.49432H94.6805V13.5126H86.1556V9.49432H84.2189V22.8456H86.1556V18.7283H94.6805V22.8456ZM94.7719 17.1879H86.2471V15.0606H94.7719V17.1879Z" fill="black"/>
</svg>
